<svg width="147" height="69" viewBox="0 0 147 69" fill="none" xmlns="http://www.w3.org/2000/svg">
<g filter="url(#filter0_d_1821_2295)">
<path d="M10.6518 37.8882C10.6518 37.8882 -1.77307 47.8117 7.33956 63C7.33956 63 10.8539 51.8874 19.7429 52.3368C19.7429 52.3368 39.95 61.7559 79.077 60.0212C79.077 60.0212 107.313 61.3582 127.983 50.9893C137.918 46.005 142.981 37.9938 142.981 29.4701C142.981 29.4701 145.981 2.00722 76.3064 2.00721C76.3064 2.00721 29.2362 1.10258 13.8463 19.5543C8.00084 26.5637 9.76489 33.8184 10.6538 37.8862L10.6518 37.8882Z" fill="white" fill-opacity="0.8" shape-rendering="crispEdges"/>
</g>
<path d="M30.344 27.208C30.6 27.048 30.864 27.048 31.136 27.208C31.392 27.368 31.568 27.552 31.664 27.76C31.696 27.92 31.728 28.24 31.76 28.72C31.792 29.2 31.792 29.512 31.76 29.656C31.728 29.8 31.736 29.976 31.784 30.184C31.8 30.376 31.792 30.616 31.76 30.904C31.648 31.656 31.648 32.792 31.76 34.312C31.76 34.488 31.768 34.712 31.784 34.984C31.8 35.256 31.808 35.512 31.808 35.752C31.824 35.992 31.848 36.176 31.88 36.304C31.896 36.816 31.928 37.128 31.976 37.24C32.008 37.368 32.016 37.504 32 37.648C31.984 37.792 31.944 37.928 31.88 38.056C31.816 38.168 31.736 38.272 31.64 38.368C31.544 38.448 31.448 38.488 31.352 38.488C31.112 38.488 30.872 38.36 30.632 38.104C30.456 37.944 30.352 37.8 30.32 37.672C30.288 37.544 30.272 37.256 30.272 36.808C30.256 36.264 30.24 35.936 30.224 35.824C30.176 35.744 30.144 35.312 30.128 34.528C30.112 33.712 30.088 33.136 30.056 32.8C30.04 32.448 30.032 32.248 30.032 32.2C30.048 32.184 30.072 31.384 30.104 29.8C30.104 29.656 30.104 29.512 30.104 29.368C30.104 29.224 30.104 29.088 30.104 28.96C30.104 28.832 30.104 28.712 30.104 28.6C30.104 28.488 30.104 28.384 30.104 28.288C30.104 28.176 30.104 28.072 30.104 27.976C30.104 27.88 30.104 27.808 30.104 27.76C30.104 27.696 30.104 27.64 30.104 27.592C30.104 27.528 30.104 27.48 30.104 27.448C30.104 27.416 30.104 27.4 30.104 27.4C30.104 27.368 30.184 27.304 30.344 27.208ZM22.856 28.024C22.936 28.008 23.056 27.96 23.216 27.88C23.376 27.8 23.56 27.76 23.768 27.76C23.992 27.76 24.176 27.784 24.32 27.832C24.448 27.928 24.624 27.984 24.848 28C25.168 28.048 25.568 28.2 26.048 28.456C26.144 28.504 26.32 28.672 26.576 28.96C26.848 29.232 26.984 29.392 26.984 29.44C26.984 29.52 27.104 29.728 27.344 30.064C27.392 30.096 27.424 30.168 27.44 30.28C27.456 30.36 27.496 30.456 27.56 30.568C27.736 30.808 27.824 31.16 27.824 31.624C27.824 31.848 27.84 32.032 27.872 32.176C27.968 32.432 27.952 32.712 27.824 33.016C27.776 33.128 27.728 33.288 27.68 33.496C27.568 33.944 27.344 34.424 27.008 34.936C26.688 35.4 26.288 35.752 25.808 35.992C25.344 36.216 25.064 36.344 24.968 36.376C24.872 36.392 24.624 36.384 24.224 36.352C23.744 36.352 23.456 36.32 23.36 36.256C23.248 36.224 23.136 36.2 23.024 36.184C22.848 36.136 22.52 35.968 22.04 35.68C21.896 35.6 21.712 35.44 21.488 35.2C21.28 34.96 21.144 34.776 21.08 34.648C21 34.44 20.872 34.16 20.696 33.808C20.472 33.28 20.36 32.904 20.36 32.68C20.36 32.664 20.368 32.504 20.384 32.2C20.416 31.544 20.504 30.968 20.648 30.472C20.712 30.328 20.76 30.168 20.792 29.992C20.808 29.896 20.872 29.744 20.984 29.536C21.096 29.36 21.256 29.16 21.464 28.936C21.688 28.712 21.848 28.576 21.944 28.528C22.36 28.32 22.6 28.176 22.664 28.096C22.68 28.08 22.744 28.056 22.856 28.024ZM24.848 29.464C24.48 29.32 24.176 29.312 23.936 29.44C23.92 29.456 23.888 29.48 23.84 29.512C23.792 29.544 23.744 29.56 23.696 29.56C23.024 29.896 22.544 30.36 22.256 30.952L22.064 31.336V32.344V33.328L22.232 33.712C22.376 34.064 22.544 34.328 22.736 34.504C22.944 34.664 23.24 34.784 23.624 34.864C24.008 34.944 24.312 34.904 24.536 34.744C24.616 34.68 24.704 34.64 24.8 34.624C24.896 34.576 25.016 34.496 25.16 34.384C25.304 34.272 25.448 34.128 25.592 33.952C25.736 33.776 25.864 33.592 25.976 33.4C26.104 33.192 26.168 32.984 26.168 32.776C26.168 32.552 26.2 32.352 26.264 32.176C26.36 31.936 26.368 31.696 26.288 31.456C26.224 31.328 26.184 31.184 26.168 31.024C26.12 30.72 25.968 30.424 25.712 30.136C25.472 29.832 25.184 29.608 24.848 29.464ZM42.0876 27.568C42.2476 27.472 42.4396 27.472 42.6636 27.568C43.0636 27.68 43.3036 27.936 43.3836 28.336C43.3996 28.48 43.4076 28.784 43.4076 29.248C43.4396 29.792 43.4716 30.384 43.5036 31.024C43.5356 31.84 43.5596 32.664 43.5756 33.496C43.5916 34.408 43.6236 34.928 43.6716 35.056C43.6876 35.168 43.7036 35.496 43.7196 36.04C43.7676 36.6 43.8156 36.928 43.8636 37.024C43.9276 37.12 43.9596 37.208 43.9596 37.288C43.9596 37.368 43.9116 37.488 43.8156 37.648C43.7356 37.808 43.6476 37.92 43.5516 37.984C43.4076 38.112 43.2316 38.144 43.0236 38.08C42.8156 38 42.6156 37.832 42.4236 37.576L42.2076 37.288L42.1596 36.64C42.1436 36.176 42.1196 35.856 42.0876 35.68C42.0236 35.472 41.9996 35.2 42.0156 34.864C42.0156 34.48 42.0076 34.056 41.9916 33.592C41.9436 33.08 41.8956 32.792 41.8476 32.728C41.7996 32.648 41.5916 32.6 41.2236 32.584C40.9036 32.568 40.5676 32.576 40.2156 32.608C39.6236 32.656 39.1756 32.648 38.8716 32.584C38.4556 32.472 38.1916 32.336 38.0796 32.176C38.0476 32.128 38.0236 32.024 38.0076 31.864C37.9916 31.704 38.0076 31.576 38.0556 31.48C38.0716 31.384 38.1836 31.28 38.3916 31.168L38.6556 31.048H40.1676C41.1916 31.048 41.7436 31.016 41.8236 30.952C41.9036 30.888 41.9356 30.784 41.9196 30.64C41.9036 30.528 41.8796 30.2 41.8476 29.656C41.8156 29.096 41.7916 28.744 41.7756 28.6C41.6476 28.072 41.7516 27.728 42.0876 27.568ZM35.7756 28.048C35.8556 28.032 35.9676 28.024 36.1116 28.024C36.2556 28.024 36.3596 28.048 36.4236 28.096C36.8236 28.32 36.9996 28.608 36.9516 28.96C36.9356 29.136 36.7596 29.552 36.4236 30.208C36.2636 30.56 36.1836 30.76 36.1836 30.808C36.1836 30.904 36.0716 31.192 35.8476 31.672C35.7356 31.864 35.7516 32.088 35.8956 32.344C36.0876 32.712 36.3916 33.048 36.8076 33.352C37.0476 33.544 37.2236 33.704 37.3356 33.832C37.4796 33.976 37.6156 34.088 37.7436 34.168C38.3196 34.568 38.7996 34.936 39.1836 35.272C39.4236 35.496 39.5596 35.68 39.5916 35.824C39.6236 35.952 39.5676 36.088 39.4236 36.232C39.3276 36.36 39.1916 36.456 39.0156 36.52C38.7276 36.6 38.4876 36.6 38.2956 36.52C38.0556 36.392 37.2876 35.696 35.9916 34.432C35.4796 33.904 35.1676 33.672 35.0556 33.736C35.0396 33.752 34.9836 33.864 34.8876 34.072C34.7916 34.28 34.7356 34.44 34.7196 34.552C34.6876 34.68 34.6476 34.776 34.5996 34.84C34.4076 35.144 34.2796 35.568 34.2156 36.112C34.1676 36.56 33.9996 36.84 33.7116 36.952C33.5516 37.032 33.3436 37.032 33.0876 36.952C32.9276 36.904 32.7756 36.8 32.6316 36.64C32.5196 36.48 32.4476 36.312 32.4156 36.136C32.3676 35.72 32.4156 35.4 32.5596 35.176C32.6236 35.096 32.6796 35.008 32.7276 34.912C32.7436 34.816 32.7836 34.728 32.8476 34.648C32.9116 34.568 32.9436 34.504 32.9436 34.456C32.9436 34.408 33.0796 34.12 33.3516 33.592C33.5596 33.208 33.6636 32.936 33.6636 32.776C33.6636 32.744 33.7516 32.544 33.9276 32.176C34.1196 31.808 34.2476 31.568 34.3116 31.456C34.3756 31.376 34.4076 31.312 34.4076 31.264C34.4076 31.232 34.4396 31.144 34.5036 31C34.5836 30.856 34.6316 30.728 34.6476 30.616C34.6636 30.536 34.6956 30.472 34.7436 30.424C34.8076 30.36 34.9116 30.104 35.0556 29.656C35.1996 29.192 35.3036 28.816 35.3676 28.528C35.3836 28.464 35.4396 28.376 35.5356 28.264C35.6316 28.152 35.7116 28.08 35.7756 28.048ZM47.4494 24.904C47.5294 24.76 47.6094 24.672 47.6894 24.64C47.7854 24.592 47.8654 24.568 47.9294 24.568C48.1854 24.568 48.4254 24.672 48.6494 24.88L48.8174 25.072V26.008C48.7854 26.632 48.8014 26.976 48.8654 27.04C48.9294 27.088 49.3054 27.088 49.9934 27.04C50.2654 26.992 50.5054 27.032 50.7134 27.16C50.9374 27.288 51.0894 27.472 51.1694 27.712C51.2334 27.888 51.1934 28.096 51.0494 28.336C50.9854 28.464 50.9134 28.552 50.8334 28.6C50.7534 28.648 50.6334 28.688 50.4734 28.72C50.3134 28.736 50.0494 28.744 49.6814 28.744C48.9934 28.744 48.3214 28.752 47.6654 28.768C46.7214 28.8 46.0574 28.808 45.6734 28.792C45.2894 28.776 45.0334 28.752 44.9054 28.72C44.5534 28.576 44.3694 28.336 44.3534 28C44.2894 27.648 44.3934 27.416 44.6654 27.304C44.8094 27.224 45.0254 27.208 45.3134 27.256C45.6334 27.272 45.9774 27.288 46.3454 27.304L46.9454 27.352L47.0894 27.184L47.2814 27.04L47.3054 26.056C47.3374 25.432 47.3854 25.048 47.4494 24.904ZM53.8334 27.616C53.8974 27.6 54.0334 27.592 54.2414 27.592C54.5774 27.608 54.8334 27.792 55.0094 28.144C55.1534 28.448 55.2254 29.032 55.2254 29.896C55.2254 30.216 55.2494 30.464 55.2974 30.64C55.3614 30.816 55.3774 31.032 55.3454 31.288C55.3134 31.544 55.3054 31.744 55.3214 31.888C55.3534 32 55.3854 32.328 55.4174 32.872C55.4494 33.224 55.4894 33.832 55.5374 34.696L55.6334 35.824L55.4894 36.088C55.2814 36.504 55.0654 36.68 54.8414 36.616C54.6334 36.584 54.4334 36.472 54.2414 36.28C54.0494 36.088 53.9214 35.872 53.8574 35.632C53.8254 35.52 53.8094 35.296 53.8094 34.96C53.8094 34.608 53.7854 34.4 53.7374 34.336C53.6734 34.272 53.1774 34.248 52.2494 34.264C51.8654 34.264 51.5694 34.248 51.3614 34.216C50.8814 34.056 50.6094 34.024 50.5454 34.12C50.5454 34.12 50.5374 34.136 50.5214 34.168C50.5054 34.2 50.4814 34.24 50.4494 34.288C50.4334 34.32 50.4174 34.344 50.4014 34.36C50.2734 34.52 50.1534 34.656 50.0414 34.768C49.9454 34.864 49.8174 34.96 49.6574 35.056C49.5134 35.152 49.2814 35.288 48.9614 35.464L48.4094 35.728L47.8334 35.704C47.1454 35.656 46.4814 35.416 45.8414 34.984C45.6974 34.904 45.5374 34.784 45.3614 34.624C45.2014 34.448 45.1134 34.328 45.0974 34.264C45.0974 34.2 45.0574 34.112 44.9774 34C44.8974 33.872 44.8574 33.784 44.8574 33.736C44.8574 33.672 44.8094 33.568 44.7134 33.424C44.6334 33.264 44.6014 32.984 44.6174 32.584C44.6494 32.216 44.6974 31.928 44.7614 31.72C44.8254 31.528 44.8574 31.408 44.8574 31.36C44.8574 31.328 44.8974 31.232 44.9774 31.072C45.0574 30.912 45.0974 30.816 45.0974 30.784C45.0974 30.672 45.2254 30.496 45.4814 30.256C45.7374 30 45.9534 29.848 46.1294 29.8C46.2094 29.784 46.2814 29.744 46.3454 29.68C46.4254 29.616 46.6814 29.576 47.1134 29.56C47.5614 29.544 47.8734 29.56 48.0494 29.608C48.2894 29.672 48.4974 29.72 48.6734 29.752C48.8654 29.768 49.2094 29.904 49.7054 30.16L50.4734 30.52L50.8574 30.424C51.1614 30.344 51.6734 30.296 52.3934 30.28C53.1294 30.248 53.5294 30.208 53.5934 30.16C53.6414 30.096 53.6494 29.648 53.6174 28.816C53.5694 28.224 53.5774 27.888 53.6414 27.808C53.6894 27.728 53.7534 27.664 53.8334 27.616ZM48.3614 31.096C48.1054 31.032 47.9294 31 47.8334 31C47.4174 31.016 47.0014 31.2 46.5854 31.552C46.5054 31.616 46.4174 31.744 46.3214 31.936C46.2254 32.096 46.1694 32.376 46.1534 32.776V33.328L46.2734 33.52C46.4494 33.728 46.6734 33.896 46.9454 34.024C47.2494 34.168 47.4734 34.24 47.6174 34.24C47.7614 34.24 47.9934 34.168 48.3134 34.024C48.7294 33.816 49.0014 33.592 49.1294 33.352C49.2094 33.176 49.2494 32.856 49.2494 32.392C49.2494 32.024 49.2334 31.776 49.2014 31.648C49.1694 31.52 49.0894 31.392 48.9614 31.264C48.8654 31.184 48.6654 31.128 48.3614 31.096ZM53.6654 31.864C53.6334 31.816 53.2014 31.792 52.3694 31.792C51.4094 31.792 50.9054 31.832 50.8574 31.912C50.8094 31.992 50.8094 32.128 50.8574 32.32C50.9054 32.496 50.9694 32.608 51.0494 32.656C51.0974 32.688 51.3294 32.704 51.7454 32.704C52.1614 32.704 52.4334 32.712 52.5614 32.728C52.6734 32.792 52.9694 32.776 53.4494 32.68C53.5774 32.664 53.6734 32.544 53.7374 32.32C53.8014 32.096 53.7774 31.944 53.6654 31.864ZM46.3454 37.24C46.3454 37.096 46.4094 36.96 46.5374 36.832C46.6814 36.704 46.8414 36.64 47.0174 36.64C47.2094 36.64 47.3934 36.72 47.5694 36.88C47.6814 36.992 47.7534 37.08 47.7854 37.144C47.8174 37.208 47.8574 37.344 47.9054 37.552C47.9214 37.84 47.9534 38.024 48.0014 38.104C48.0334 38.216 48.0654 38.36 48.0974 38.536C48.1294 38.984 48.2334 39.248 48.4094 39.328C48.4734 39.36 48.5774 39.376 48.7214 39.376C48.8494 39.376 49.0174 39.392 49.2254 39.424C49.4334 39.456 49.6254 39.456 49.8014 39.424C49.9934 39.392 50.5054 39.368 51.3374 39.352C52.0254 39.352 52.7854 39.328 53.6174 39.28C53.8894 39.264 54.1134 39.256 54.2894 39.256C54.4654 39.256 54.6174 39.264 54.7454 39.28C54.8894 39.28 55.0014 39.288 55.0814 39.304C55.1614 39.32 55.2334 39.344 55.2974 39.376C55.3614 39.408 55.4254 39.44 55.4894 39.472C55.7774 39.68 55.9214 39.92 55.9214 40.192C55.9214 40.384 55.8734 40.528 55.7774 40.624C55.6174 40.768 55.3934 40.864 55.1054 40.912C54.8334 40.96 54.2414 40.968 53.3294 40.936C52.8494 40.92 52.2254 40.936 51.4574 40.984C50.5934 41.048 50.0654 41.048 49.8734 40.984C49.7294 40.952 49.4494 40.952 49.0334 40.984C48.1374 41.016 47.5294 40.912 47.2094 40.672C46.9374 40.48 46.7934 40.216 46.7774 39.88C46.7454 39.672 46.7054 39.464 46.6574 39.256C46.5934 39.032 46.5614 38.792 46.5614 38.536C46.5614 38.312 46.5214 38.08 46.4414 37.84C46.3774 37.584 46.3454 37.384 46.3454 37.24ZM63.7301 26.128C63.8901 26.048 64.0181 26.008 64.1141 26.008C64.2101 25.976 64.3381 26.008 64.4981 26.104C64.6581 26.184 64.7621 26.272 64.8101 26.368C64.9221 26.576 64.9781 26.904 64.9781 27.352C64.9781 27.528 65.0021 27.672 65.0501 27.784C65.0981 27.912 65.1221 28.744 65.1221 30.28V32.608L64.9541 32.8C64.7941 33.008 64.5781 33.072 64.3061 32.992C64.0821 32.928 63.9061 32.76 63.7781 32.488L63.6341 32.248V29.872C63.6341 28.416 63.6181 27.416 63.5861 26.872L63.5621 26.224L63.7301 26.128ZM56.3141 26.752C56.3141 26.608 56.3781 26.472 56.5061 26.344C56.6341 26.2 56.7861 26.128 56.9621 26.128C57.2341 26.144 57.4741 26.296 57.6821 26.584C57.7621 26.68 57.8181 26.984 57.8501 27.496C57.8661 28.024 57.8741 28.648 57.8741 29.368C57.8901 30.104 57.9141 30.48 57.9461 30.496C58.0261 30.576 58.2741 30.6 58.6901 30.568C59.0581 30.536 59.6261 30.52 60.3941 30.52H61.5461L61.8581 30.688C62.0501 30.784 62.1781 30.888 62.2421 31C62.4341 31.384 62.3381 31.68 61.9541 31.888L61.7381 32.032L60.6821 31.984C59.9941 31.968 59.5221 31.984 59.2661 32.032C59.0101 32.064 58.5541 32.08 57.8981 32.08H56.9141L56.7221 31.936C56.4501 31.664 56.3141 31.232 56.3141 30.64C56.3141 30.288 56.3381 30.072 56.3861 29.992C56.4661 29.864 56.4981 29.16 56.4821 27.88C56.4821 27.544 56.4581 27.304 56.4101 27.16C56.3461 27.016 56.3141 26.88 56.3141 26.752ZM63.6821 34.048C63.9061 33.968 64.2341 33.992 64.6661 34.12C64.8741 34.2 65.0421 34.336 65.1701 34.528L65.3621 34.792V36.232C65.3621 37.176 65.3941 37.72 65.4581 37.864C65.5861 38.072 65.6181 38.304 65.5541 38.56C65.5061 38.816 65.3941 39.048 65.2181 39.256C64.9941 39.464 64.4901 39.528 63.7061 39.448C63.4181 39.432 63.2181 39.44 63.1061 39.472C62.9941 39.504 62.7461 39.504 62.3621 39.472C61.9941 39.44 61.6821 39.456 61.4261 39.52C61.1861 39.584 60.9621 39.6 60.7541 39.568C60.5621 39.536 60.2021 39.528 59.6741 39.544C59.1781 39.544 58.7941 39.512 58.5221 39.448C58.0421 39.304 57.7781 39.12 57.7301 38.896C57.6981 38.832 57.6501 38.704 57.5861 38.512C57.5221 38.32 57.4821 37.864 57.4661 37.144C57.4501 36.408 57.4021 35.92 57.3221 35.68C57.1781 35.056 57.1781 34.64 57.3221 34.432C57.4981 34.144 58.0181 34.048 58.8821 34.144C59.2981 34.208 59.7541 34.232 60.2501 34.216C60.7461 34.168 61.0741 34.152 61.2341 34.168C61.4261 34.168 61.6181 34.136 61.8101 34.072C62.1941 33.976 62.6901 33.992 63.2981 34.12C63.4101 34.136 63.5381 34.112 63.6821 34.048ZM62.7461 35.488C62.2501 35.472 61.9061 35.448 61.7141 35.416C61.5701 35.4 61.4901 35.4 61.4741 35.416C61.4741 35.416 61.1781 35.44 60.5861 35.488C59.7541 35.536 59.2741 35.616 59.1461 35.728C59.1141 35.792 59.0981 36.176 59.0981 36.88C59.0661 37.616 59.0661 38 59.0981 38.032C59.1301 38.064 59.3221 38.08 59.6741 38.08C60.0421 38.064 60.3461 38.032 60.5861 37.984C60.9061 37.936 61.1381 37.936 61.2821 37.984C61.5541 38.048 61.8741 38.04 62.2421 37.96C62.4501 37.912 62.6901 37.888 62.9621 37.888C63.3941 37.872 63.6661 37.792 63.7781 37.648C63.8421 37.552 63.8581 37.192 63.8261 36.568L63.8021 35.68L63.6821 35.584C63.6021 35.536 63.2901 35.504 62.7461 35.488ZM79.7399 25.648C79.8359 25.632 79.9239 25.616 80.0039 25.6C80.1799 25.6 80.3799 25.664 80.6039 25.792C80.8279 25.904 80.9559 26.024 80.9879 26.152C81.0359 26.296 81.0599 27.096 81.0599 28.552C81.0439 28.84 81.0679 29.008 81.1319 29.056C81.1799 29.104 81.5719 29.128 82.3079 29.128C82.8039 29.096 83.1479 29.128 83.3399 29.224C83.6919 29.384 83.8759 29.616 83.8919 29.92C83.9239 30.08 83.8759 30.232 83.7479 30.376C83.6199 30.536 83.5159 30.624 83.4359 30.64C82.9879 30.704 82.3719 30.736 81.5879 30.736C81.3319 30.736 81.1639 30.768 81.0839 30.832C81.0199 30.896 81.0039 31.04 81.0359 31.264C81.0679 31.664 81.1159 32.152 81.1799 32.728C81.2279 33.032 81.2519 33.288 81.2519 33.496C81.2199 33.72 81.1399 33.904 81.0119 34.048C80.8999 34.192 80.7559 34.264 80.5799 34.264C80.3559 34.264 80.1399 34.144 79.9319 33.904C79.6439 33.568 79.5239 33.136 79.5719 32.608C79.5879 32.368 79.5719 32.16 79.5239 31.984C79.5079 31.84 79.4919 30.784 79.4759 28.816C79.4759 28.704 79.4759 28.552 79.4759 28.36C79.4759 27.032 79.4839 26.264 79.4999 26.056C79.5159 25.832 79.5879 25.696 79.7159 25.648C79.7319 25.648 79.7399 25.648 79.7399 25.648ZM73.3319 25.936C73.3799 25.936 73.4999 25.888 73.6919 25.792C73.8839 25.696 74.1639 25.664 74.5319 25.696C74.9319 25.696 75.2039 25.728 75.3479 25.792C75.5079 25.84 75.6199 25.864 75.6839 25.864C75.8279 25.864 76.0679 26.016 76.4039 26.32C76.7399 26.608 76.9799 26.864 77.1239 27.088C77.1719 27.168 77.2439 27.304 77.3399 27.496C77.4519 27.656 77.5239 27.792 77.5559 27.904C77.6199 28.048 77.6759 28.128 77.7239 28.144C77.7559 28.176 77.7879 28.28 77.8199 28.456C77.8839 28.648 77.9319 28.792 77.9639 28.888C78.0119 28.984 78.0279 29.136 78.0119 29.344C77.9799 29.648 77.9799 29.92 78.0119 30.16C78.0279 30.336 78.0039 30.464 77.9399 30.544C77.7799 30.8 77.6519 31.104 77.5559 31.456C77.5399 31.632 77.4599 31.8 77.3159 31.96C77.1879 32.104 77.1079 32.208 77.0759 32.272C76.9799 32.432 76.7879 32.632 76.4999 32.872C76.2279 33.096 75.9799 33.256 75.7559 33.352C75.5639 33.448 75.2119 33.504 74.6999 33.52C74.2039 33.536 73.8679 33.504 73.6919 33.424C73.5319 33.344 73.3879 33.296 73.2599 33.28C72.9239 33.216 72.5879 33.032 72.2519 32.728C72.0439 32.568 71.9319 32.48 71.9159 32.464C71.8999 32.416 71.8519 32.352 71.7719 32.272C71.6759 32.16 71.6279 32.096 71.6279 32.08C71.6279 32.048 71.5959 32 71.5319 31.936C71.4999 31.872 71.4519 31.792 71.3879 31.696C71.3239 31.584 71.2679 31.48 71.2199 31.384C71.1719 31.272 71.1479 31.2 71.1479 31.168C71.1479 31.12 71.1079 31.032 71.0279 30.904C70.9479 30.76 70.9159 30.408 70.9319 29.848C70.9479 29.272 70.9879 28.912 71.0519 28.768C71.1159 28.656 71.1479 28.576 71.1479 28.528C71.1479 28.48 71.1879 28.384 71.2679 28.24C71.3479 28.08 71.3879 27.968 71.3879 27.904C71.3879 27.84 71.4439 27.704 71.5559 27.496C71.6679 27.272 71.7799 27.096 71.8919 26.968C72.0199 26.824 72.1319 26.72 72.2279 26.656C72.3399 26.576 72.4839 26.464 72.6599 26.32C72.8359 26.192 72.9399 26.128 72.9719 26.128C73.0199 26.128 73.0839 26.096 73.1639 26.032C73.2439 25.968 73.2999 25.936 73.3319 25.936ZM75.4199 27.4C75.2439 27.304 75.0199 27.272 74.7479 27.304C74.3799 27.352 74.0599 27.456 73.7879 27.616C73.2919 27.936 72.9079 28.456 72.6359 29.176C72.5559 29.416 72.5239 29.72 72.5399 30.088C72.5559 30.648 72.6439 31.056 72.8039 31.312C72.9639 31.552 73.2439 31.736 73.6439 31.864C74.0919 32.008 74.4199 32.016 74.6279 31.888C74.7399 31.824 74.8359 31.784 74.9159 31.768C75.0439 31.736 75.1879 31.648 75.3479 31.504C75.5079 31.344 75.6519 31.176 75.7799 31C75.9239 30.808 76.0119 30.648 76.0439 30.52C76.1079 30.36 76.1559 30.24 76.1879 30.16C76.2679 30.032 76.2999 29.752 76.2839 29.32C76.2839 28.872 76.2359 28.544 76.1399 28.336C76.0759 28.208 76.0439 28.128 76.0439 28.096C76.0439 28.016 75.9719 27.896 75.8279 27.736C75.6999 27.576 75.5639 27.464 75.4199 27.4ZM73.0679 34.864C73.2599 34.736 73.5239 34.728 73.8599 34.84C74.1639 34.952 74.3559 35.184 74.4359 35.536C74.5639 36.064 74.6519 36.744 74.6999 37.576C74.6999 38.04 74.7479 38.312 74.8439 38.392L75.0119 38.536L75.4439 38.44C75.7479 38.376 76.0279 38.368 76.2839 38.416C76.5399 38.464 76.8919 38.464 77.3399 38.416C77.7399 38.4 78.2919 38.392 78.9959 38.392C79.6359 38.36 80.1399 38.336 80.5079 38.32C81.1479 38.24 81.5719 38.248 81.7799 38.344C82.0199 38.504 82.1879 38.688 82.2839 38.896C82.3639 39.136 82.2999 39.36 82.0919 39.568C82.0759 39.568 82.0679 39.576 82.0679 39.592C81.9399 39.72 81.7879 39.8 81.6119 39.832C81.4519 39.848 80.9319 39.872 80.0519 39.904C79.9879 39.904 79.9399 39.904 79.9079 39.904C78.6919 39.952 77.9799 39.976 77.7719 39.976C77.5479 39.96 77.2279 39.952 76.8119 39.952C76.4119 39.952 76.1239 39.96 75.9479 39.976C75.1479 40.024 74.5319 39.992 74.0999 39.88C73.9399 39.848 73.7879 39.768 73.6439 39.64C73.4839 39.512 73.3559 39.304 73.2599 39.016C73.1799 38.728 73.1239 38.288 73.0919 37.696C73.0599 36.8 73.0039 36.128 72.9239 35.68C72.8279 35.264 72.8759 34.992 73.0679 34.864ZM92.0994 25.96C92.2434 25.896 92.4114 25.912 92.6034 26.008C92.8114 26.088 92.9794 26.208 93.1074 26.368C93.1874 26.496 93.2354 26.792 93.2514 27.256C93.2514 27.704 93.2834 27.984 93.3474 28.096C93.3954 28.192 93.4514 28.784 93.5154 29.872C93.5474 31.008 93.5634 31.728 93.5634 32.032C93.5954 32.4 93.5794 32.688 93.5154 32.896C93.3714 33.2 93.1394 33.344 92.8194 33.328C92.6594 33.312 92.5074 33.24 92.3634 33.112C92.2354 32.984 92.1634 32.88 92.1474 32.8C92.1474 32.72 92.1154 32.616 92.0514 32.488C91.9874 32.392 91.9634 32.256 91.9794 32.08C91.9954 31.952 91.9794 31.768 91.9314 31.528C91.8994 31.288 91.8674 31.152 91.8354 31.12C91.8034 31.072 91.6834 31.048 91.4754 31.048C91.3314 31.048 91.1074 31.032 90.8034 31C90.5634 30.968 90.1794 30.92 89.6514 30.856L88.9314 30.808L88.7394 30.616C88.5794 30.472 88.4914 30.28 88.4754 30.04C88.4594 29.8 88.5394 29.648 88.7154 29.584C88.7954 29.568 89.3154 29.552 90.2754 29.536C91.2194 29.504 91.7554 29.456 91.8834 29.392C92.0754 29.248 92.1154 29.12 92.0034 29.008C91.9074 28.896 91.6834 28.88 91.3314 28.96C91.1874 29.008 90.8994 29.04 90.4674 29.056C90.0354 29.072 89.7474 29.072 89.6034 29.056C89.0114 28.928 88.6274 28.776 88.4514 28.6C88.3074 28.408 88.2354 28.216 88.2354 28.024C88.2514 27.832 88.3474 27.712 88.5234 27.664C88.6194 27.616 89.1474 27.584 90.1074 27.568C91.1154 27.52 91.6594 27.472 91.7394 27.424C91.8994 27.312 91.9074 27.136 91.7634 26.896C91.7154 26.816 91.6914 26.696 91.6914 26.536C91.6914 26.36 91.7474 26.232 91.8594 26.152C91.9554 26.056 92.0354 25.992 92.0994 25.96ZM84.5154 26.344C84.6434 26.264 84.7474 26.224 84.8274 26.224C84.9554 26.224 85.0994 26.28 85.2594 26.392C85.4354 26.504 85.5634 26.632 85.6434 26.776C85.6914 26.888 85.7314 27.952 85.7634 29.968C85.7954 30.896 85.8434 31.4 85.9074 31.48C86.0194 31.672 86.1794 31.728 86.3874 31.648C86.4994 31.6 86.7074 31.56 87.0114 31.528C87.3314 31.496 87.6274 31.464 87.8994 31.432C88.5874 31.32 89.0754 31.384 89.3634 31.624C89.6354 31.848 89.7714 32.064 89.7714 32.272C89.7714 32.352 89.7234 32.464 89.6274 32.608C89.5314 32.736 89.4434 32.808 89.3634 32.824C89.2834 32.872 88.9474 32.888 88.3554 32.872C87.7794 32.84 87.4514 32.856 87.3714 32.92C87.2914 32.968 86.8834 33 86.1474 33.016H85.0674L84.8754 32.896C84.7314 32.784 84.6114 32.64 84.5154 32.464L84.3714 32.2V30.688C84.3714 29.664 84.3874 28.984 84.4194 28.648C84.4514 28.312 84.4354 27.928 84.3714 27.496C84.3074 27.096 84.2834 26.824 84.2994 26.68C84.3314 26.536 84.4034 26.424 84.5154 26.344ZM89.6514 33.664C89.8914 33.616 90.2914 33.64 90.8514 33.736C91.4434 33.848 91.8194 33.96 91.9794 34.072C92.0914 34.136 92.1554 34.168 92.1714 34.168C92.2354 34.168 92.4194 34.304 92.7234 34.576C92.8354 34.64 92.9794 34.808 93.1554 35.08C93.3474 35.336 93.4434 35.48 93.4434 35.512C93.4434 35.576 93.4834 35.664 93.5634 35.776C93.6274 35.888 93.6594 36.12 93.6594 36.472C93.6594 36.808 93.6274 37.072 93.5634 37.264C93.4834 37.456 93.4434 37.584 93.4434 37.648C93.4434 37.856 93.2754 38.168 92.9394 38.584C92.6194 39 92.2514 39.28 91.8354 39.424C91.5634 39.504 91.3874 39.552 91.3074 39.568C91.1154 39.648 90.8034 39.672 90.3714 39.64C89.9234 39.608 89.6354 39.56 89.5074 39.496C89.3954 39.416 89.3074 39.376 89.2434 39.376C89.1794 39.376 89.1154 39.36 89.0514 39.328C89.0034 39.296 88.8994 39.24 88.7394 39.16C88.6114 39.08 88.4194 38.92 88.1634 38.68C87.9074 38.424 87.7794 38.264 87.7794 38.2C87.7794 38.184 87.7314 38.08 87.6354 37.888C87.5554 37.744 87.5154 37.64 87.5154 37.576C87.5154 37.496 87.4834 37.336 87.4194 37.096C87.3074 36.712 87.3074 36.272 87.4194 35.776C87.4834 35.472 87.6034 35.216 87.7794 35.008C88.0034 34.768 88.2434 34.528 88.4994 34.288C88.7554 34.048 88.9154 33.928 88.9794 33.928C89.0274 33.928 89.0914 33.896 89.1714 33.832C89.2514 33.784 89.4114 33.728 89.6514 33.664ZM91.0674 35.2C90.8274 35.136 90.6354 35.104 90.4914 35.104C90.1554 35.104 89.8434 35.192 89.5554 35.368C89.2674 35.528 89.0674 35.744 88.9554 36.016C88.8594 36.208 88.8114 36.432 88.8114 36.688C88.8114 36.944 88.8674 37.184 88.9794 37.408C89.1714 37.776 89.5074 38.016 89.9874 38.128C90.2114 38.192 90.4274 38.192 90.6354 38.128C91.0514 38.016 91.3554 37.872 91.5474 37.696C91.7394 37.504 91.8754 37.248 91.9554 36.928C92.0194 36.688 92.0274 36.424 91.9794 36.136C91.9154 35.848 91.8754 35.68 91.8594 35.632C91.7474 35.424 91.4834 35.28 91.0674 35.2ZM97.2015 27.112C97.2975 26.904 97.3935 26.784 97.4895 26.752C97.5855 26.704 97.6895 26.688 97.8015 26.704C97.9135 26.704 98.0095 26.704 98.0895 26.704C98.1695 26.704 98.2895 26.776 98.4495 26.92C98.6095 27.048 98.6975 27.168 98.7135 27.28C98.7615 27.376 98.7615 27.68 98.7135 28.192C98.6975 28.288 98.6815 28.408 98.6655 28.552C98.6495 28.68 98.6415 28.784 98.6415 28.864C98.6415 28.928 98.6335 28.96 98.6175 28.96C98.6175 29.024 98.6655 29.112 98.7615 29.224C98.8575 29.32 98.9695 29.36 99.0975 29.344C99.3055 29.312 99.5615 29.28 99.8655 29.248L100.466 29.2L100.754 29.344C100.93 29.424 101.058 29.528 101.138 29.656C101.234 29.768 101.282 29.944 101.282 30.184C101.25 30.408 101.178 30.592 101.066 30.736L100.874 30.928L100.442 30.904C99.9775 30.872 99.5855 30.848 99.2655 30.832C98.7695 30.768 98.4735 30.768 98.3775 30.832C98.1855 30.912 98.0095 30.912 97.8495 30.832C97.7535 30.784 97.4255 30.76 96.8655 30.76C96.3055 30.76 95.9455 30.784 95.7855 30.832C95.6415 30.896 95.4335 30.928 95.1615 30.928C94.9055 30.928 94.7055 30.888 94.5615 30.808C94.2735 30.616 94.1055 30.368 94.0575 30.064C94.0415 29.888 94.0655 29.752 94.1295 29.656C94.2095 29.464 94.5615 29.392 95.1855 29.44C96.1935 29.472 96.7775 29.448 96.9375 29.368C96.9855 29.32 97.0255 29.088 97.0575 28.672C97.1055 28.256 97.1135 27.96 97.0815 27.784C97.0655 27.528 97.1055 27.304 97.2015 27.112ZM102.89 29.368C102.922 29.288 103.002 29.2 103.13 29.104C103.258 29.008 103.378 28.96 103.49 28.96C103.538 28.96 103.61 28.984 103.706 29.032C103.818 29.064 103.922 29.112 104.018 29.176C104.13 29.24 104.21 29.304 104.258 29.368L104.426 29.512V31.24C104.442 32.376 104.466 32.968 104.498 33.016C104.546 33.064 104.898 33.088 105.554 33.088H106.514L106.754 33.232C106.946 33.344 107.09 33.496 107.186 33.688C107.282 33.88 107.33 34 107.33 34.048C107.33 34.112 107.274 34.232 107.162 34.408C107.066 34.568 106.978 34.664 106.898 34.696C106.786 34.776 106.41 34.816 105.77 34.816C105.13 34.8 104.762 34.824 104.666 34.888C104.522 35.032 104.482 35.264 104.546 35.584C104.594 35.76 104.634 36.088 104.666 36.568C104.698 37.032 104.746 37.368 104.81 37.576C104.89 37.912 104.874 38.192 104.762 38.416C104.538 38.88 104.242 39.016 103.874 38.824C103.634 38.696 103.426 38.456 103.25 38.104C103.154 37.912 103.106 37.6 103.106 37.168C103.106 36.736 103.09 36.4 103.058 36.16C103.01 35.936 102.986 35.712 102.986 35.488C103.002 35.248 102.986 35.016 102.938 34.792C102.906 34.568 102.906 34.352 102.938 34.144C102.954 33.952 102.954 33.68 102.938 33.328C102.89 32.96 102.874 32.672 102.89 32.464C102.922 32.208 102.914 31.656 102.866 30.808C102.85 29.928 102.858 29.448 102.89 29.368ZM96.6255 32.104C96.9775 31.928 97.2575 31.88 97.4655 31.96C97.5775 31.992 97.7215 32.024 97.8975 32.056C98.0255 32.072 98.2095 32.136 98.4495 32.248C98.6895 32.344 98.8335 32.432 98.8815 32.512C98.9135 32.56 98.9535 32.584 99.0015 32.584C99.0655 32.584 99.1695 32.624 99.3135 32.704C99.4415 32.784 99.5215 32.824 99.5535 32.824C99.6175 32.824 99.7615 32.912 99.9855 33.088C100.45 33.44 100.77 33.728 100.946 33.952C101.122 34.16 101.25 34.432 101.33 34.768C101.458 35.2 101.458 35.632 101.33 36.064C101.234 36.544 101.05 37 100.778 37.432C100.506 37.864 100.242 38.152 99.9855 38.296C99.8735 38.36 99.7295 38.44 99.5535 38.536C99.4255 38.6 99.3375 38.648 99.2895 38.68C99.2575 38.712 99.1855 38.744 99.0735 38.776C98.9615 38.792 98.8495 38.8 98.7375 38.8C98.6415 38.8 98.4575 38.8 98.1855 38.8C97.5615 38.8 97.1535 38.752 96.9615 38.656C96.8335 38.592 96.6175 38.488 96.3135 38.344C96.0255 38.2 95.7775 38.048 95.5695 37.888C95.4575 37.808 95.3135 37.68 95.1375 37.504C94.9615 37.328 94.8735 37.224 94.8735 37.192C94.8735 37.176 94.8335 37.112 94.7535 37C94.6415 36.888 94.5455 36.456 94.4655 35.704C94.4495 35.592 94.4735 35.392 94.5375 35.104C94.6015 34.8 94.6655 34.6 94.7295 34.504C94.7615 34.456 94.7935 34.344 94.8255 34.168C94.8735 33.944 94.9855 33.68 95.1615 33.376C95.3535 33.056 95.5215 32.808 95.6655 32.632C95.8415 32.456 95.9695 32.36 96.0495 32.344C96.1455 32.328 96.3375 32.248 96.6255 32.104ZM98.3055 33.616C97.8895 33.536 97.5775 33.52 97.3695 33.568C97.1615 33.6 96.9375 33.736 96.6975 33.976C96.5055 34.184 96.4095 34.304 96.4095 34.336C96.4095 34.368 96.3695 34.456 96.2895 34.6C96.2255 34.728 96.1695 34.896 96.1215 35.104C96.0895 35.36 96.0495 35.56 96.0015 35.704C95.9535 35.864 95.9615 36.064 96.0255 36.304C96.1055 36.528 96.2255 36.72 96.3855 36.88C96.5455 37.056 96.6735 37.16 96.7695 37.192C96.8655 37.24 96.9935 37.296 97.1535 37.36C97.2815 37.424 97.5135 37.464 97.8495 37.48C98.2015 37.48 98.4255 37.44 98.5215 37.36C98.6975 37.232 98.8255 37.136 98.9055 37.072C99.4175 36.704 99.7295 36.288 99.8415 35.824C99.9855 35.28 99.9535 34.84 99.7455 34.504C99.6175 34.328 99.5055 34.2 99.4095 34.12C99.1055 33.88 98.7375 33.712 98.3055 33.616ZM119.346 27.16C119.57 27.048 119.842 27.072 120.162 27.232C120.45 27.376 120.626 27.688 120.69 28.168C120.706 28.488 120.722 29.744 120.738 31.936C120.77 34.208 120.794 35.4 120.81 35.512C120.89 35.848 120.93 36.496 120.93 37.456C120.93 37.792 120.89 38.024 120.81 38.152C120.522 38.504 120.234 38.576 119.946 38.368C119.578 38.112 119.394 37.944 119.394 37.864C119.394 37.816 119.37 37.752 119.322 37.672C119.226 37.576 119.178 36.648 119.178 34.888C119.162 30.616 119.114 28.352 119.034 28.096C118.986 27.936 118.962 27.8 118.962 27.688C118.962 27.608 119.002 27.512 119.082 27.4C119.178 27.288 119.266 27.208 119.346 27.16ZM111.066 27.472C111.258 27.408 111.458 27.416 111.666 27.496C111.986 27.672 112.194 27.896 112.29 28.168C112.338 28.28 112.338 28.432 112.29 28.624C112.226 28.768 112.186 28.912 112.17 29.056C112.154 29.2 112.114 29.32 112.05 29.416C111.986 29.512 111.954 29.592 111.954 29.656C111.954 29.72 111.922 29.816 111.858 29.944C111.778 30.104 111.714 30.248 111.666 30.376C111.634 30.536 111.562 30.752 111.45 31.024C111.37 31.28 111.306 31.456 111.258 31.552C111.274 31.68 111.266 31.76 111.234 31.792C111.218 31.808 111.25 31.888 111.33 32.032C111.426 32.176 111.522 32.32 111.618 32.464C111.73 32.608 111.922 32.864 112.194 33.232C112.306 33.36 112.378 33.456 112.41 33.52C112.442 33.584 112.514 33.688 112.626 33.832C112.754 33.96 112.89 34.096 113.034 34.24C113.178 34.368 113.314 34.488 113.442 34.6C113.57 34.696 113.642 34.744 113.658 34.744C113.706 34.744 113.882 34.888 114.186 35.176C114.49 35.496 114.642 35.704 114.642 35.8C114.642 35.992 114.482 36.192 114.162 36.4C113.81 36.624 113.522 36.64 113.298 36.448C112.706 36.016 112.098 35.36 111.474 34.48C111.122 34.016 110.834 33.696 110.61 33.52C110.45 33.392 110.322 33.432 110.226 33.64C110.21 33.736 110.17 33.808 110.106 33.856C110.058 33.904 110.01 34.024 109.962 34.216C109.914 34.392 109.882 34.496 109.866 34.528C109.818 34.56 109.778 34.672 109.746 34.864C109.698 35.056 109.642 35.192 109.578 35.272C109.53 35.352 109.498 35.456 109.482 35.584C109.466 35.728 109.402 35.904 109.29 36.112C109.194 36.336 109.082 36.48 108.954 36.544C108.538 36.752 108.178 36.68 107.874 36.328C107.762 36.2 107.706 35.992 107.706 35.704C107.706 35.416 107.738 35.192 107.802 35.032C107.882 34.872 107.938 34.736 107.97 34.624C108.002 34.496 108.026 34.408 108.042 34.36C108.074 34.36 108.106 34.32 108.138 34.24C108.186 34.16 108.226 34.072 108.258 33.976C108.306 33.88 108.346 33.784 108.378 33.688C108.426 33.592 108.45 33.52 108.45 33.472C108.514 33.2 108.626 32.96 108.786 32.752C108.834 32.704 108.93 32.544 109.074 32.272C109.202 32 109.298 31.848 109.362 31.816C109.394 31.784 109.41 31.752 109.41 31.72C109.41 31.672 109.45 31.576 109.53 31.432C109.626 31.272 109.674 31.168 109.674 31.12C109.674 31.072 109.706 30.976 109.77 30.832C109.85 30.688 109.89 30.584 109.89 30.52C109.89 30.488 109.922 30.432 109.986 30.352C110.05 30.288 110.098 30.184 110.13 30.04C110.178 29.88 110.234 29.744 110.298 29.632C110.362 29.504 110.394 29.408 110.394 29.344C110.394 29.28 110.426 29.152 110.49 28.96C110.554 28.752 110.602 28.544 110.634 28.336C110.65 28.16 110.706 27.984 110.802 27.808C110.898 27.632 110.986 27.52 111.066 27.472ZM116.61 27.76C116.69 27.696 116.834 27.672 117.042 27.688C117.25 27.704 117.426 27.768 117.57 27.88C117.714 27.976 117.802 28.104 117.834 28.264C117.882 28.408 117.898 28.736 117.882 29.248C117.882 29.808 117.898 30.176 117.93 30.352C117.978 30.512 118.01 31.384 118.026 32.968C118.026 34.552 118.05 35.4 118.098 35.512C118.178 35.864 118.218 36.208 118.218 36.544C118.234 36.72 118.202 36.88 118.122 37.024C117.978 37.232 117.778 37.352 117.522 37.384C117.266 37.416 117.018 37.328 116.778 37.12C116.57 36.944 116.466 36.68 116.466 36.328C116.466 36.088 116.45 35.912 116.418 35.8C116.322 35.592 116.322 35.352 116.418 35.08C116.45 34.92 116.458 34.568 116.442 34.024C116.426 33.48 116.394 33.176 116.346 33.112C116.282 33.08 115.714 33.032 114.642 32.968C114.066 32.92 113.73 32.88 113.634 32.848C113.554 32.8 113.466 32.736 113.37 32.656C113.29 32.576 113.21 32.488 113.13 32.392C113.066 32.296 113.034 32.216 113.034 32.152C113.002 31.88 113.058 31.704 113.202 31.624C113.266 31.608 113.666 31.56 114.402 31.48C115.154 31.384 115.658 31.336 115.914 31.336C116.074 31.336 116.178 31.32 116.226 31.288C116.29 31.256 116.338 31.184 116.37 31.072C116.418 30.96 116.426 30.864 116.394 30.784C116.378 30.704 116.362 30.392 116.346 29.848C116.346 29.256 116.338 28.84 116.322 28.6C116.29 28.328 116.306 28.128 116.37 28C116.466 27.872 116.546 27.792 116.61 27.76ZM125.868 26.032C125.932 25.968 126.028 25.936 126.156 25.936C126.3 25.92 126.388 25.928 126.42 25.96C126.484 26.024 126.78 26.064 127.308 26.08C127.82 26.128 128.172 26.192 128.364 26.272C128.924 26.544 129.372 27.056 129.708 27.808C129.74 27.888 129.772 27.952 129.804 28C129.82 28.032 129.892 28.168 130.02 28.408C130.116 28.632 130.164 28.984 130.164 29.464C130.164 29.944 130.196 30.256 130.26 30.4C130.324 30.56 130.324 30.728 130.26 30.904C130.18 31.064 130.132 31.256 130.116 31.48C130.068 31.736 129.9 32.128 129.612 32.656C129.34 33.168 129.108 33.504 128.916 33.664C128.852 33.696 128.796 33.768 128.748 33.88C128.7 33.976 128.716 34.08 128.796 34.192C128.844 34.304 128.916 34.496 129.012 34.768C129.092 35.008 129.124 35.224 129.108 35.416C129.092 35.608 129.084 35.736 129.084 35.8C129.084 35.88 129.092 36.208 129.108 36.784C129.124 37.376 129.148 37.712 129.18 37.792C129.196 38 129.388 38.072 129.756 38.008C129.932 38.008 130.244 38.016 130.692 38.032C131.14 38.064 131.444 38.128 131.604 38.224C132.02 38.512 132.148 38.808 131.988 39.112C131.86 39.352 131.684 39.512 131.46 39.592C131.156 39.72 130.62 39.72 129.852 39.592C129.564 39.528 128.972 39.512 128.076 39.544C126.076 39.576 124.972 39.552 124.764 39.472C124.604 39.44 124.396 39.432 124.14 39.448C123.884 39.464 123.692 39.472 123.564 39.472C123.436 39.472 123.172 39.44 122.772 39.376C122.372 39.296 122.116 39.232 122.004 39.184C121.892 39.152 121.756 39.056 121.596 38.896C121.452 38.72 121.364 38.592 121.332 38.512C121.3 38.336 121.396 38.16 121.62 37.984L121.788 37.864L122.46 37.888C122.924 37.904 123.196 37.92 123.276 37.936C123.404 37.984 123.572 38.016 123.78 38.032C124.004 38.064 124.14 38.048 124.188 37.984C124.22 37.936 124.228 37.448 124.212 36.52C124.164 35.576 124.124 35.072 124.092 35.008C124.028 34.88 124.028 34.728 124.092 34.552C124.172 34.36 124.284 34.224 124.428 34.144C124.556 34.08 124.604 34.024 124.572 33.976C124.556 33.912 124.428 33.8 124.188 33.64C123.9 33.416 123.668 33.2 123.492 32.992C123.332 32.784 123.132 32.432 122.892 31.936L122.532 31.216V30.328C122.548 29.736 122.588 29.352 122.652 29.176C122.716 28.968 122.756 28.824 122.772 28.744C122.788 28.632 122.82 28.536 122.868 28.456C122.916 28.376 122.956 28.264 122.988 28.12C123.052 27.992 123.1 27.896 123.132 27.832C123.18 27.768 123.268 27.656 123.396 27.496C123.668 27.128 124.036 26.84 124.5 26.632C124.612 26.568 124.692 26.512 124.74 26.464C124.852 26.384 125.116 26.288 125.532 26.176C125.692 26.144 125.804 26.096 125.868 26.032ZM127.764 27.784C127.588 27.688 127.316 27.64 126.948 27.64C126.596 27.624 126.364 27.624 126.252 27.64C126.06 27.688 125.852 27.784 125.628 27.928C125.404 28.056 125.196 28.216 125.004 28.408C124.812 28.584 124.644 28.776 124.5 28.984C124.244 29.368 124.092 29.824 124.044 30.352C123.996 30.88 124.052 31.312 124.212 31.648C124.292 31.808 124.412 31.968 124.572 32.128C124.732 32.288 124.9 32.424 125.076 32.536C125.252 32.632 125.42 32.688 125.58 32.704C125.756 32.72 125.868 32.752 125.916 32.8C126.076 32.896 126.244 32.896 126.42 32.8C126.532 32.752 126.668 32.72 126.828 32.704C127.036 32.656 127.148 32.616 127.164 32.584C127.212 32.52 127.276 32.48 127.356 32.464C127.452 32.464 127.588 32.368 127.764 32.176C128.244 31.744 128.484 31.336 128.484 30.952C128.484 30.808 128.516 30.616 128.58 30.376C128.66 30.136 128.692 29.952 128.676 29.824C128.66 29.744 128.636 29.512 128.604 29.128C128.572 28.872 128.524 28.664 128.46 28.504C128.412 28.344 128.332 28.208 128.22 28.096C128.124 27.984 127.972 27.88 127.764 27.784ZM126.396 34.288C126.124 34.256 125.932 34.248 125.82 34.264C125.708 34.28 125.652 34.352 125.652 34.48C125.668 34.528 125.684 34.8 125.7 35.296C125.796 36.432 125.916 37.24 126.06 37.72C126.06 37.768 126.108 37.824 126.204 37.888C126.316 37.968 126.58 37.976 126.996 37.912C127.236 37.88 127.388 37.808 127.452 37.696C127.5 37.6 127.516 37.368 127.5 37C127.452 36.68 127.428 36.264 127.428 35.752C127.428 34.92 127.388 34.48 127.308 34.432C127.276 34.384 127.172 34.36 126.996 34.36C126.82 34.36 126.62 34.336 126.396 34.288ZM133.842 26.8C133.954 26.688 134.106 26.64 134.298 26.656C134.506 26.656 134.642 26.688 134.706 26.752C134.722 26.752 134.762 26.784 134.826 26.848C134.906 26.912 134.962 26.952 134.994 26.968C135.17 27.128 135.218 27.272 135.138 27.4C135.01 27.608 134.946 28.504 134.946 30.088V32.176L134.826 32.272C134.746 32.352 134.706 32.448 134.706 32.56C134.706 32.72 134.61 32.8 134.418 32.8C134.29 32.8 134.186 32.768 134.106 32.704C134.042 32.624 133.978 32.584 133.914 32.584C133.834 32.584 133.73 32.52 133.602 32.392C133.426 32.2 133.346 31.96 133.362 31.672C133.362 31.656 133.37 31.376 133.386 30.832C133.418 30.352 133.442 30.096 133.458 30.064C133.49 30.016 133.482 29.944 133.434 29.848C133.402 29.752 133.41 29.648 133.458 29.536C133.538 29.328 133.586 28.712 133.602 27.688L133.65 26.992L133.842 26.8ZM133.506 35.272C133.634 35.192 133.842 35.152 134.13 35.152C134.45 35.152 134.658 35.192 134.754 35.272C134.866 35.352 134.938 35.392 134.97 35.392C135.018 35.392 135.138 35.488 135.33 35.68C135.522 35.888 135.666 36.112 135.762 36.352C135.954 36.768 135.978 37.096 135.834 37.336C135.754 37.432 135.698 37.56 135.666 37.72C135.65 37.912 135.538 38.112 135.33 38.32C135.138 38.512 135.002 38.616 134.922 38.632C134.842 38.648 134.762 38.704 134.682 38.8C134.554 38.944 134.226 38.984 133.698 38.92C133.426 38.904 133.25 38.864 133.17 38.8C133.106 38.704 133.034 38.648 132.954 38.632C132.874 38.616 132.77 38.544 132.642 38.416L132.426 38.224V37.168V36.088L132.762 35.728C133.002 35.504 133.162 35.392 133.242 35.392C133.322 35.392 133.41 35.352 133.506 35.272ZM134.226 36.616C134.13 36.504 134.01 36.52 133.866 36.664C133.786 36.744 133.746 36.92 133.746 37.192C133.762 37.448 133.81 37.576 133.89 37.576C133.954 37.592 134.042 37.552 134.154 37.456C134.266 37.344 134.346 37.248 134.394 37.168C134.458 36.976 134.402 36.792 134.226 36.616Z" fill="#342818"/>
<defs>
<filter id="filter0_d_1821_2295" x="0" y="0" width="147" height="69" filterUnits="userSpaceOnUse" color-interpolation-filters="sRGB">
<feFlood flood-opacity="0" result="BackgroundImageFix"/>
<feColorMatrix in="SourceAlpha" type="matrix" values="0 0 0 0 0 0 0 0 0 0 0 0 0 0 0 0 0 0 127 0" result="hardAlpha"/>
<feOffset dy="2"/>
<feGaussianBlur stdDeviation="2"/>
<feComposite in2="hardAlpha" operator="out"/>
<feColorMatrix type="matrix" values="0 0 0 0 0.615686 0 0 0 0 0.662745 0 0 0 0 0.8 0 0 0 0.1 0"/>
<feBlend mode="normal" in2="BackgroundImageFix" result="effect1_dropShadow_1821_2295"/>
<feBlend mode="normal" in="SourceGraphic" in2="effect1_dropShadow_1821_2295" result="shape"/>
</filter>
</defs>
</svg>
